<svg xmlns="http://www.w3.org/2000/svg" viewBox="0 0 60 62" fill="none" class="prefix__prefix__prefix__signInIcon__TpQ4"><circle cx="30" cy="30" r="30" fill="#FFE4D6"/><circle cx="29.887" cy="29.887" r="22.521" fill="#FC9"/><path d="M24.273 59.597l-5.421-6.17a3.112 3.112 0 01.254-4.362 3.033 3.033 0 014.312.257l3.797 4.323V35.789c0-.79.31-1.547.861-2.105a2.925 2.925 0 012.08-.871c.78 0 1.53.313 2.08.871a2.99 2.99 0 01.863 2.105V49.18h2.942c2.34 0 4.585.94 6.24 2.615a8.98 8.98 0 012.585 6.313v1.49" stroke="#FF5722" stroke-width="4" stroke-linecap="round" stroke-linejoin="round"/><path d="M38.973 42.188a14.88 14.88 0 005.223-7.468c.922-2.981.892-6.18-.086-9.143a14.872 14.872 0 00-5.362-7.366 14.633 14.633 0 00-8.614-2.81c-3.092 0-6.106.984-8.614 2.81a14.872 14.872 0 00-5.362 7.366 15.024 15.024 0 00-.086 9.143 14.88 14.88 0 005.223 7.468" stroke="#FF5722" stroke-width="4" stroke-linecap="round" stroke-linejoin="round"/></svg>